<svg width="60" height="60" viewBox="0 0 60 60" fill="none" xmlns="http://www.w3.org/2000/svg">
<circle cx="30" cy="30" r="30" fill="#3C2415"/>
<path d="M13.7344 38.188H46.112" stroke="#FAF4F0" stroke-width="0.617212" stroke-miterlimit="10"/>
<path d="M18.5977 38.0506V31.8541H19.1807V28.8974H20.659L21.3295 29.6511V31.7416V31.8541H22.3789V29.5887L23.1659 28.7017H23.7239L24.6109 29.572V31.8541H25.7561V29.622L26.564 28.7017H26.9888L27.8966 29.6303V31.8541H28.9168V29.5678L29.7872 28.7017H30.3119L31.1947 29.6136V31.8541H32.1817V29.6136L33.0312 28.7017H33.4851L34.343 29.6345V31.8541H35.4756V29.5887L36.3043 28.7017H36.8207L37.7077 29.6136V31.8541H38.7655V29.5512L39.5983 28.7017H40.8934V31.8541H41.4681V38.188H18.5977V38.0506Z" stroke="#FAF4F0" stroke-width="0.617212" stroke-miterlimit="10"/>
<path d="M20.6662 30.1431V30.4137H20.3747V30.7052H20.104V30.4137H19.8125V30.1431H20.104V29.8516H20.3747V30.1431H20.6662Z" fill="#FAF4F0" stroke="#FAF4F0" stroke-width="0.205737" stroke-miterlimit="10"/>
<path d="M23.9318 30.1431V30.4137H23.6403V30.7052H23.3696V30.4137H23.0781V30.1431H23.3696V29.8516H23.6403V30.1431H23.9318Z" fill="#FAF4F0" stroke="#FAF4F0" stroke-width="0.205737" stroke-miterlimit="10"/>
<path d="M27.2131 30.1431V30.4137H26.9257V30.7052H26.6509V30.4137H26.3594V30.1431H26.6509V29.8516H26.9257V30.1431H27.2131Z" fill="#FAF4F0" stroke="#FAF4F0" stroke-width="0.205737" stroke-miterlimit="10"/>
<path d="M30.4829 30.1431V30.4137H30.1913V30.7052H29.9165V30.4137H29.625V30.1431H29.9165V29.8516H30.1913V30.1431H30.4829Z" fill="#FAF4F0" stroke="#FAF4F0" stroke-width="0.205737" stroke-miterlimit="10"/>
<path d="M33.7133 30.1431V30.4137H33.4218V30.7052H33.147V30.4137H32.8555V30.1431H33.147V29.8516H33.4218V30.1431H33.7133Z" fill="#FAF4F0" stroke="#FAF4F0" stroke-width="0.205737" stroke-miterlimit="10"/>
<path d="M36.9943 30.1431V30.4137H36.7028V30.7052H36.428V30.4137H36.1406V30.1431H36.428V29.8516H36.7028V30.1431H36.9943Z" fill="#FAF4F0" stroke="#FAF4F0" stroke-width="0.205737" stroke-miterlimit="10"/>
<path d="M40.2599 30.1431V30.4137H39.9684V30.7052H39.6936V30.4137H39.4062V30.1431H39.6936V29.8516H39.9684V30.1431H40.2599Z" fill="#FAF4F0" stroke="#FAF4F0" stroke-width="0.205737" stroke-miterlimit="10"/>
<path d="M21.4844 26.7075V28.3066H24.5243V28.0276" stroke="#FAF4F0" stroke-width="0.514343" stroke-miterlimit="10"/>
<path d="M38.6103 26.7075V28.3066H35.5703V28.0276" stroke="#FAF4F0" stroke-width="0.514343" stroke-miterlimit="10"/>
<path d="M23.1914 26.7075V27.8111H26.7935" stroke="#FAF4F0" stroke-width="0.514343" stroke-miterlimit="10"/>
<path d="M36.8695 26.7075V27.8111H33.1758" stroke="#FAF4F0" stroke-width="0.514343" stroke-miterlimit="10"/>
<path d="M30.0258 6.50586V8.31734V8.69213H29.8218L29.6719 9.22516V9.9914V10.1288H30.3923V9.22516L30.2424 8.69213L30.0966 8.69629" stroke="#FAF4F0" stroke-width="0.411475" stroke-miterlimit="10"/>
<path d="M29.7164 10.3706L29.8913 10.6579L29.6414 12.7318L29.7955 13.294H29.5415V13.8062H29.7997L29.7164 14.1393H29.5165V14.4891L29.25 14.7515H29.6206L29.7997 14.5641L29.9579 14.7515H30.137L30.2911 14.5599L30.4868 14.7515H30.8907L30.5493 14.4516V14.106L30.3244 14.1102L30.2536 13.777L30.4993 13.7687L30.491 13.2815L30.2536 13.2898L30.3952 12.7234L30.162 10.6371L30.3327 10.3706" stroke="#FAF4F0" stroke-width="0.411475" stroke-miterlimit="10"/>
<path d="M29.7033 14.9263V15.4635L29.4451 15.5926L29.0703 15.3177V14.9637V15.68V15.9757V16.1423H30.9526V14.9554" stroke="#FAF4F0" stroke-width="0.411475" stroke-miterlimit="10"/>
<path d="M30.3555 14.9263V15.5051L30.6303 15.6675L30.9968 15.3594" stroke="#FAF4F0" stroke-width="0.411475" stroke-miterlimit="10"/>
<path d="M29.4068 16.3502V16.8749L29.0737 17.0623V16.9041L28.7239 16.6542L28.5781 16.5585V16.0171V16.9374L28.6822 17.1456L28.6739 17.6495H31.3932V17.104L31.4682 16.8333V16.0587" stroke="#FAF4F0" stroke-width="0.411475" stroke-miterlimit="10"/>
<path d="M30.6289 16.3506V16.8336L30.9537 17.0627L31.4035 16.5921" stroke="#FAF4F0" stroke-width="0.411475" stroke-miterlimit="10"/>
<path d="M29.5391 17.1167V17.3457H29.7598L29.9472 17.1167V16.6045H30.0554V17.0626L30.2803 17.3457H30.4927V17.0626" stroke="#FAF4F0" stroke-width="0.411475" stroke-miterlimit="10"/>
<path d="M29.1647 17.7539V18.5368L28.6816 18.8199V18.5867L28.1694 18.2078L27.957 18.0662V17.25V18.6326L28.1111 18.949L28.0945 19.6986H32.0714V18.8824L32.1797 18.4743V17.3166" stroke="#FAF4F0" stroke-width="0.411475" stroke-miterlimit="10"/>
<path d="M29.3594 18.8993V19.2449H29.68L29.9549 18.8993V18.1289H30.1131V18.8202L30.4463 19.2449H30.7544V18.8202" stroke="#FAF4F0" stroke-width="0.411475" stroke-miterlimit="10"/>
<path d="M31.4025 19.8942V20.369L32.0855 20.8187V20.523L32.4353 20.5647L33.1765 19.8526V18.5283H33.314V20.4689L33.0475 20.9978L33.0599 21.3184L33.3848 21.3059V21.764H33.1765V21.9889H26.9217V21.7807H26.6719V21.3184H26.9925V20.9853L26.7885 20.6355V18.5283H26.9634V19.8692L27.6047 20.5105L27.9545 20.523V20.8187L28.6541 20.369L28.6666 19.8692" stroke="#FAF4F0" stroke-width="0.411475" stroke-miterlimit="10"/>
<path d="M29.1016 20.752V21.4474L29.2806 21.7597" stroke="#FAF4F0" stroke-width="0.411475" stroke-miterlimit="10"/>
<path d="M30.9525 20.752V21.4474L30.7734 21.7597" stroke="#FAF4F0" stroke-width="0.411475" stroke-miterlimit="10"/>
<path d="M29.1914 21.256H29.5246L29.9535 20.7729V19.9775H30.1367V20.7937L30.549 21.256H30.8655" stroke="#FAF4F0" stroke-width="0.411475" stroke-miterlimit="10"/>
<path d="M24.7422 21.3311V23.6922L24.9254 23.9129V24.8208H35.1405V23.8047L35.2779 23.5798V21.3311" stroke="#FAF4F0" stroke-width="0.411475" stroke-miterlimit="10"/>
<path d="M24.918 21.3311V22.3805L25.6176 23.0759H26.0132V23.3716H26.2381L26.6295 23.2175" stroke="#FAF4F0" stroke-width="0.411475" stroke-miterlimit="10"/>
<path d="M35.0941 21.3311V22.3805L34.3986 23.0759H33.9989V23.3716H33.774L33.3867 23.2175" stroke="#FAF4F0" stroke-width="0.411475" stroke-miterlimit="10"/>
<path d="M25.6367 24.1089L28.0104 23.0762V22.3516" stroke="#FAF4F0" stroke-width="0.411475" stroke-miterlimit="10"/>
<path d="M34.4596 24.1089L32.0859 23.0762V22.3516" stroke="#FAF4F0" stroke-width="0.411475" stroke-miterlimit="10"/>
<path d="M30.0212 15.4302V15.78H29.8047H30.2836" stroke="#FAF4F0" stroke-width="0.411475" stroke-miterlimit="10"/>
<path d="M30.8672 17.729L30.8963 18.4744L31.3752 18.7492V18.4744H31.6376L32.0748 18.033V17.3042" stroke="#FAF4F0" stroke-width="0.411475" stroke-miterlimit="10"/>
<path d="M28.9218 24.4625L28.7344 24.1085V23.4256L29.0175 24.0211L29.2466 24.0128L29.7921 23.4256V22.3887H30.2502V23.3715L30.8665 24.0336L31.0872 24.0128L31.3204 23.3715V24.171L31.1414 24.4625" stroke="#FAF4F0" stroke-width="0.411475" stroke-miterlimit="10"/>
<path d="M23.082 22.3516V24.3046L23.1861 24.4212V25.708H36.8701V24.4629L36.995 24.1089V22.389" stroke="#FAF4F0" stroke-width="0.411475" stroke-miterlimit="10"/>
<path d="M24.3364 23.9507V23.68H23.8991L23.2578 23.3552V22.3516" stroke="#FAF4F0" stroke-width="0.411475" stroke-miterlimit="10"/>
<path d="M35.7461 23.9878V23.7213H36.1833L36.8288 23.3923V22.3887" stroke="#FAF4F0" stroke-width="0.411475" stroke-miterlimit="10"/>
<path d="M21.2734 23.3711V24.9869L21.3859 25.1576V26.411H24.6507V26.0488" stroke="#FAF4F0" stroke-width="0.411475" stroke-miterlimit="10"/>
<path d="M22.8221 24.6003H22.5014V24.3338H22.2474L21.3438 23.9507" stroke="#FAF4F0" stroke-width="0.411475" stroke-miterlimit="10"/>
<path d="M38.7796 23.3711V24.9869L38.6672 25.1576V26.411H35.4023V26.0488" stroke="#FAF4F0" stroke-width="0.411475" stroke-miterlimit="10"/>
<path d="M37.2305 24.6003H37.5511V24.3338H37.801L38.7088 23.9507" stroke="#FAF4F0" stroke-width="0.411475" stroke-miterlimit="10"/>
<path d="M27.0352 28.4354V27.4318L27.1851 27.0945V26.0659" stroke="#FAF4F0" stroke-width="0.411475" stroke-miterlimit="10"/>
<path d="M33.0054 28.4354V27.4318L32.8555 27.0945V26.0659" stroke="#FAF4F0" stroke-width="0.411475" stroke-miterlimit="10"/>
<path d="M13.7268 41.8353H13.7392L13.9261 43.3403H12.9045L13.7268 41.8353ZM14.0856 44.7681H14.721L14.2226 41.1725H13.4925L11.4443 44.7681H12.1345L12.6428 43.8486H13.9734L14.0856 44.7681ZM17.5043 44.2049H15.8622L16.51 41.1725H15.8597L15.0947 44.7681H17.3896L17.5043 44.2049ZM20.2502 44.2049H18.6081L19.256 41.1725H18.6056L17.8406 44.7681H20.1356L20.2502 44.2049ZM21.2369 44.7681L22.0019 41.1725H21.3515L20.5866 44.7681H21.2369ZM25.4405 42.8868H23.9479L23.8433 43.3876H24.7054L24.688 43.4773C24.5858 43.9508 24.1946 44.2697 23.6963 44.2697C23.1082 44.2697 22.7893 43.8586 22.7893 43.2456C22.7893 42.4781 23.178 41.6733 24.0327 41.6733C24.5161 41.6733 24.825 41.9549 24.8549 42.376H25.4854C25.4854 42.361 25.4878 42.3411 25.4878 42.3261C25.4729 41.6434 24.9098 41.1127 24.0426 41.1127C22.7868 41.1127 22.1339 42.1966 22.1339 43.2705C22.1339 44.195 22.712 44.8279 23.6564 44.8279C24.5285 44.8279 25.1564 44.3071 25.3408 43.3802L25.4405 42.8868ZM27.551 41.8353H27.5635L27.7504 43.3403H26.7287L27.551 41.8353ZM27.9098 44.7681H28.5452L28.0469 41.1725H27.3168L25.2686 44.7681H25.9588L26.4671 43.8486H27.7977L27.9098 44.7681ZM30.0104 44.7681L30.6582 41.7281H31.7621L31.8767 41.1725H29.0187L28.904 41.7281H30.0079L29.36 44.7681H30.0104ZM33.9997 44.2124H32.3202L32.5395 43.2057H34.1243L34.2339 42.6825H32.6467L32.856 41.7281H34.5329L34.65 41.1725H32.3202L31.5553 44.7681H33.8851L33.9997 44.2124Z" fill="#FAF4F0"/>
<path d="M35.6752 40.9748C35.8165 40.8663 35.8958 40.8782 36.0551 40.9981C36.128 41.0515 36.2105 41.0876 36.2968 41.104C36.4743 41.137 36.653 41.1599 36.8323 41.1728C37.1012 41.1933 37.3662 41.2113 37.637 41.161L37.7487 41.1068C37.8083 41.0778 37.8688 41.0486 37.934 41.0396C38.1054 41.0158 38.2683 41.1337 38.4408 41.1579C38.5362 41.1712 38.6364 41.1561 38.7267 41.1939C38.8587 41.2497 38.9507 41.412 39.0915 41.4166C39.1517 41.4184 39.2114 41.3895 39.2711 41.4035C39.3053 41.4115 39.3351 41.4334 39.3687 41.4438C39.3938 41.4508 39.4197 41.453 39.4453 41.4501C39.525 41.4318 39.6003 41.3968 39.6667 41.347C39.7663 41.2721 39.8536 41.1607 39.9752 41.1483C40.0057 41.199 39.9822 41.2809 40.0293 41.3136C40.0514 41.3257 40.0768 41.3283 40.1002 41.3208C40.3193 41.2745 40.4831 41.0388 40.7072 41.0442C40.6876 41.1089 40.756 41.1745 40.8198 41.1741C40.8836 41.1736 40.939 41.1315 40.9906 41.092C41.0724 41.0298 41.1564 40.9708 41.2425 40.915C41.3283 40.8593 41.4257 40.8054 41.5262 40.8252C41.5807 40.8362 41.6299 40.8683 41.6832 40.8817C41.9206 40.9396 42.1374 40.6236 42.369 40.7057C42.3911 40.7136 42.4121 40.7248 42.4341 40.7315C42.5184 40.7601 42.608 40.732 42.6926 40.7088C42.91 40.6487 43.1345 40.6198 43.3602 40.6228C43.5113 40.6248 43.6745 40.6275 43.8225 40.5976C43.9052 40.581 43.9871 40.5513 44.0715 40.5572C44.1559 40.563 44.2318 40.603 44.3128 40.6259C44.4068 40.6526 44.5047 40.6562 44.5993 40.6365C44.6167 40.6309 44.6353 40.6301 44.6534 40.6341C44.6747 40.6412 44.6892 40.6619 44.7052 40.6796C44.7859 40.7659 44.9147 40.7652 45.0256 40.7464C45.1365 40.7275 45.254 40.6976 45.3591 40.7435C45.3792 40.751 45.397 40.7645 45.4103 40.7824C45.42 40.8013 45.428 40.8211 45.4341 40.8417C45.457 40.8966 45.5117 40.9304 45.5667 40.9408C45.6218 40.9512 45.6778 40.942 45.7327 40.9328C45.8801 40.9147 46.0421 40.8909 46.1894 40.8729C46.2217 40.8662 46.2551 40.8678 46.287 40.8775C46.3239 40.8925 46.3501 40.9278 46.3832 40.9509C46.5139 41.0427 46.6863 40.9213 46.8381 40.9575C46.9372 40.981 47.0131 41.0682 47.1025 41.1191C47.1405 41.1323 47.1799 41.1402 47.2196 41.1425C47.3068 41.1462 47.3918 41.1114 47.4788 41.1169C47.5282 41.1222 47.577 41.1339 47.624 41.1518L47.7862 41.2058C47.7994 41.2087 47.8114 41.216 47.8205 41.2267C47.8266 41.2391 47.8297 41.2528 47.8296 41.2666C47.8354 41.3088 47.8516 41.3489 47.8764 41.3827C47.9565 41.4374 48.0277 41.5119 48.0952 41.5819C48.1106 41.5959 48.1238 41.6124 48.1344 41.6307C48.1366 41.6356 48.1397 41.6557 48.1427 41.6515C48.1365 41.6672 48.1188 41.6844 48.1133 41.6999C48.0899 41.7646 48.1121 41.847 48.135 41.9096C48.1828 42.0393 48.2806 42.1394 48.3619 42.2453C48.4028 42.2983 48.4425 42.354 48.465 42.4189C48.4914 42.4956 48.4763 42.567 48.4635 42.644C48.4353 42.8154 48.5001 42.9402 48.5592 43.0956C48.5878 43.1703 48.5949 43.2377 48.5714 43.3136C48.5524 43.3747 48.5277 43.4326 48.5185 43.497C48.5088 43.5661 48.5188 43.6389 48.5267 43.7077C48.5306 43.7334 48.5384 43.7668 48.5271 43.7912C48.5053 43.8383 48.4237 43.8721 48.3837 43.8922C48.319 43.9244 48.2488 43.9507 48.1956 44.003C48.1423 44.0553 48.1363 44.136 48.089 44.192C48.0531 44.2345 48.0282 44.2133 47.9618 44.2562C47.893 44.3005 47.8903 44.3302 47.8441 44.3657C47.7337 44.4503 47.6494 44.3583 47.5173 44.4303C47.4358 44.4749 47.4555 44.5169 47.3546 44.5912C47.2225 44.6884 47.099 44.6825 47.1008 44.6933C47.103 44.708 47.3384 44.737 47.5054 44.6009C47.554 44.5615 47.5601 44.5382 47.6118 44.5128C47.7084 44.4652 47.7563 44.5122 47.8834 44.4803C47.9528 44.4629 47.9993 44.4336 48.0741 44.3866C48.1609 44.3322 48.2038 44.3045 48.2351 44.2482C48.2549 44.2119 48.2613 44.1664 48.2861 44.1341C48.3146 44.0961 48.364 44.0778 48.4042 44.0585C48.5066 44.0093 48.6563 43.9444 48.6776 43.8094C48.6864 43.7581 48.6755 43.7048 48.6699 43.6535C48.6596 43.5816 48.6657 43.5084 48.6876 43.4402C48.7123 43.3656 48.7384 43.2946 48.7364 43.2135C48.7338 43.1352 48.7079 43.0612 48.6775 42.9903C48.6397 42.9017 48.5949 42.8155 48.6051 42.7155C48.6139 42.6276 48.6393 42.5454 48.6268 42.4555C48.606 42.3058 48.509 42.1858 48.4195 42.0747C48.3545 41.994 48.2199 41.8427 48.2659 41.7426C48.3119 41.6426 48.2739 41.5612 48.2132 41.4907C48.2251 41.4966 48.2369 41.5028 48.2489 41.5088C48.5041 41.8041 48.7356 42.1564 48.8458 42.542C48.9434 42.8808 48.9741 43.2362 48.936 43.5855C48.8354 44.4503 47.9952 44.8042 47.2816 44.9288C46.5981 45.0483 45.8798 44.881 45.1906 44.8528C44.517 44.8258 43.8344 44.8873 43.2029 45.1251C43.0596 45.179 42.9145 45.2453 42.8121 45.3651C42.7098 45.4848 42.6609 45.6706 42.7325 45.8174C42.563 45.5484 42.6913 45.1857 42.9051 44.9651C43.1188 44.7444 43.4193 44.65 43.7095 44.5791C44.82 44.3114 45.9791 44.2921 47.0835 43.9991C47.2523 43.9543 47.4247 43.9004 47.5578 43.7821C47.6908 43.6638 47.776 43.4656 47.7211 43.2866C47.6528 43.0638 47.4117 42.9636 47.1976 42.9184C46.533 42.7784 45.8545 42.877 45.1811 42.9207C45.1201 42.9322 45.059 42.9461 44.9981 42.963C44.8145 43.0136 44.6329 43.0795 44.4458 43.1067C44.2864 43.1304 44.1958 43.2009 44.127 43.3557C43.9961 43.6478 43.7851 43.8445 43.4719 43.9051C43.2857 43.941 43.1027 43.9985 42.9218 44.0581C42.7092 44.1275 42.4981 44.2055 42.3121 44.3549C42.3287 44.2804 42.3455 44.2058 42.3659 44.1146L42.0162 44.2554C42.0127 44.2483 42.009 44.2414 42.0055 44.2345L42.1333 44.0208L42.0111 44.0613C42.1071 43.8105 42.2781 43.6571 42.4729 43.5349C42.5354 43.5114 42.5976 43.486 42.6623 43.4639C42.727 43.4418 42.8017 43.4169 42.8298 43.3438C42.8305 43.342 42.8309 43.3401 42.8316 43.3382L42.8357 43.336L42.8323 43.3365C42.8533 43.2709 42.8209 43.2035 42.7825 43.1516C42.7208 43.0697 42.6584 42.9988 42.6136 42.9042C42.5256 42.7199 42.4827 42.4939 42.5381 42.2943C42.6151 42.0167 42.8357 41.8888 42.9051 41.8482C43.1139 41.7255 43.3118 41.739 43.3101 41.7238C43.3083 41.7086 43.1074 41.6849 42.89 41.7622C42.7876 41.7986 42.5852 41.8704 42.4596 42.0865C42.3186 42.3298 42.3703 42.5949 42.3836 42.6722C42.4213 42.8745 42.5102 43.0628 42.6405 43.2164C42.6567 43.2358 42.6798 43.259 42.6893 43.2847C42.686 43.287 42.6824 43.2885 42.6785 43.2892C42.6592 43.2958 42.6403 43.3035 42.6217 43.3122C42.5881 43.3237 42.555 43.3363 42.5218 43.3492C42.4001 43.3542 42.2785 43.3578 42.1569 43.3543C41.4497 43.3337 40.7422 43.3073 40.0344 43.2749C39.9628 43.2717 39.926 43.2983 39.8801 43.3465C39.719 43.5183 39.5581 43.6915 39.386 43.8502C39.2293 43.9949 39.0397 44.0736 38.8293 44.0929C38.6792 44.1067 38.5281 44.1152 38.379 44.1374C38.3385 44.1434 38.2983 44.1849 38.2683 44.2203C38.2206 44.2767 38.1817 44.3416 38.1338 44.4103C38.0928 44.3341 38.0634 44.2799 38.0349 44.2273L37.7938 44.4281C37.8139 44.3178 37.8269 44.2457 37.8448 44.1474L37.444 44.3654C37.4724 44.2935 37.4936 44.2405 37.5158 44.1829L37.4064 44.2049C37.669 43.9147 37.972 43.7148 38.3532 43.6747C38.3951 43.6702 38.4432 43.6813 38.4786 43.6635C38.5845 43.6106 38.69 43.5567 38.7943 43.5002C38.8013 43.4999 38.8082 43.4986 38.8148 43.4963C38.9622 43.4452 39.1046 43.3596 39.1718 43.2257L39.1818 43.2161L39.1764 43.2156C39.1851 43.1971 39.1922 43.1778 39.1977 43.158C39.2133 43.0987 39.2159 43.0361 39.2054 42.9749C39.1811 42.8052 39.077 42.5557 39.0594 42.563C39.0358 42.5727 39.2583 43.0292 39.1191 43.1645C39.0877 43.1916 39.0478 43.205 39.007 43.202C38.9821 43.1986 38.9436 43.1937 38.8964 43.1918C38.8325 43.1889 38.5747 43.1828 38.2239 43.3408C38.0494 43.42 38.058 43.4457 37.9585 43.4661C37.7938 43.4995 37.7245 43.4365 37.5361 43.4056C37.1744 43.3466 37.1084 43.5265 36.712 43.4601C36.5906 43.4398 36.5543 43.4186 36.4372 43.4149C36.3084 43.411 36.1791 43.4342 36.0506 43.4276C36.026 43.4273 36.0016 43.4209 35.9795 43.4088C35.9574 43.3967 35.9381 43.3793 35.9231 43.358C35.9082 43.3367 35.898 43.3121 35.8933 43.2861C35.8887 43.2601 35.8898 43.2334 35.8964 43.2082C35.9056 43.178 35.9163 43.1484 35.9286 43.1196C35.8826 42.9702 35.8659 42.8128 35.8798 42.6575L36.0077 42.9469C36.0142 42.9615 36.0255 42.9788 36.04 42.9753C36.0502 42.9729 36.0554 42.9611 36.0584 42.9505C36.094 42.8316 36.0544 42.6931 36.1042 42.5806C36.1251 42.6391 36.1211 42.7044 36.1399 42.7639C36.1586 42.8234 36.2176 42.8792 36.2708 42.8553C36.3203 42.8329 36.3271 42.762 36.3262 42.7039C36.3686 42.719 36.3967 42.7615 36.4325 42.7903C36.4683 42.819 36.5284 42.8292 36.5498 42.7879C36.5566 42.775 36.5583 42.7584 36.5687 42.7483C36.5908 42.7273 36.6272 42.7531 36.6568 42.7471C36.7026 42.7378 36.7021 42.6679 36.7256 42.6252C36.7712 42.6362 36.8224 42.6413 36.8602 42.6135C36.9142 42.5737 36.9153 42.49 36.9108 42.4193L36.9692 42.5149C36.989 42.5047 37.006 42.4894 37.0188 42.4703C37.0316 42.4511 37.0398 42.4289 37.0426 42.4053C37.0769 42.4217 37.1009 42.4641 37.1387 42.4643C37.1497 42.4636 37.1605 42.461 37.1706 42.4566L37.2602 42.4224L37.4254 42.3599C37.4689 42.3453 37.5108 42.3257 37.5501 42.3012C37.6026 42.2644 37.6434 42.2117 37.6676 42.1497C37.6919 42.0876 37.6983 42.0189 37.6863 41.9521C37.6512 42.0764 37.6132 42.2114 37.511 42.2799C37.4846 42.297 37.4565 42.3108 37.4272 42.3213C37.4116 42.3273 37.3949 42.3328 37.3787 42.3382C37.442 42.3021 37.502 42.2599 37.558 42.2122C37.5715 42.2003 37.5826 42.1857 37.5906 42.1691C37.5987 42.1525 37.6035 42.1343 37.6049 42.1155C37.6062 42.0967 37.604 42.0778 37.5984 42.0597C37.5929 42.0417 37.584 42.025 37.5724 42.0106C37.561 42.0034 37.5491 41.9975 37.5367 41.9928C37.4754 41.9702 37.4087 41.9764 37.3462 41.991C37.3056 41.9987 37.2673 42.016 37.2341 42.0418C37.2175 42.0548 37.2043 42.0722 37.1958 42.0923C37.1873 42.1124 37.1836 42.1346 37.1852 42.1568C37.1401 42.0573 37.0662 41.9757 36.9748 41.9244C36.9476 41.9076 36.9172 41.8977 36.8861 41.8956C36.8571 41.8947 36.8251 41.9047 36.802 41.885C36.786 41.8723 36.7794 41.8504 36.7682 41.8327C36.7575 41.8161 36.7428 41.803 36.7256 41.7949C36.7084 41.7868 36.6895 41.784 36.6712 41.787C36.6528 41.7899 36.6357 41.7984 36.6219 41.8115C36.6081 41.8246 36.5981 41.8416 36.5931 41.8608C36.5785 41.8282 36.5587 41.7984 36.5348 41.7727C36.5229 41.7604 36.5085 41.7512 36.4927 41.746C36.477 41.7408 36.4604 41.7397 36.4443 41.7429C36.4362 41.7477 36.4292 41.7544 36.4236 41.7623C36.4 41.798 36.3947 41.8474 36.3762 41.9091L36.2905 41.7062L36.2182 41.7585C36.2056 41.7227 36.1951 41.6931 36.1851 41.6649C36.172 41.6875 36.1605 41.7124 36.1371 41.7113L36.1159 41.6625C36.1121 41.6744 36.1059 41.6852 36.0977 41.6941C36.0894 41.703 36.0794 41.7099 36.0683 41.7141C36.0636 41.6921 36.0523 41.6723 36.0362 41.6575C36.0201 41.6428 36 41.634 35.9791 41.6324C35.9591 41.7412 35.9355 41.8489 35.9082 41.9555C35.8487 41.8481 35.8147 41.7271 35.8091 41.6033C35.8096 41.5881 35.807 41.5728 35.8014 41.5586C35.7984 41.5515 35.7932 41.5456 35.7866 41.5421C35.78 41.5386 35.7726 41.5377 35.7655 41.5395C35.7604 41.5422 35.7559 41.5461 35.7522 41.5508C35.7486 41.5555 35.7458 41.5609 35.7442 41.5668C35.6926 41.6916 35.6785 41.8307 35.665 41.9672C35.5954 41.8312 35.5502 41.6827 35.532 41.5297C35.5222 41.4984 35.5121 41.4658 35.5012 41.4335C35.4425 41.2567 35.4962 41.1122 35.6752 40.9748Z" fill="#FAF4F0"/>
</svg>
